{
  "accessors": [
    {
      "bufferView": 1,
      "componentType": 5126,
      "count": 7853,
      "max": [
        31.87700080871582,
        -11.74899959564209,
        31.093000411987305
      ],
      "min": [
        -51.65800094604492,
        -100.42900085449219,
        -28.34600067138672
      ],
      "type": "VEC3"
    },
    {
      "bufferView": 1,
      "byteOffset": 94236,
      "componentType": 5126,
      "count": 7853,
      "max": [
        0.9998967051506042,
        0.9996545314788818,
        1.0
      ],
      "min": [
        -0.9998679161071777,
        -1.0,
        -0.9999357461929321
      ],
      "type": "VEC3"
    },
    {
      "bufferView": 0,
      "componentType": 5125,
      "count": 37668,
      "type": "SCALAR"
    },
    {
      "bufferView": 1,
      "byteOffset": 188472,
      "componentType": 5126,
      "count": 7164,
      "max": [
        66.6969985961914,
        -11.75,
        46.819000244140625
      ],
      "min": [
        -86.55999755859375,
        -271.0,
        -49.92399978637695
      ],
      "type": "VEC3"
    },
    {
      "bufferView": 1,
      "byteOffset": 274440,
      "componentType": 5126,
      "count": 7164,
      "max": [
        0.9990931749343872,
        1.0,
        0.9999141693115234
      ],
      "min": [
        -0.9999858736991882,
        -0.9999955892562866,
        -0.9999839067459106
      ],
      "type": "VEC3"
    },
    {
      "bufferView": 0,
      "byteOffset": 150672,
      "componentType": 5125,
      "count": 35076,
      "type": "SCALAR"
    },
    {
      "bufferView": 1,
      "byteOffset": 360408,
      "componentType": 5126,
      "count": 3981,
      "max": [
        28.379100799560547,
        0.006000000052154064,
        34.67070007324219
      ],
      "min": [
        -50.90230178833008,
        -156.52090454101563,
        -43.33980178833008
      ],
      "type": "VEC3"
    },
    {
      "bufferView": 1,
      "byteOffset": 408180,
      "componentType": 5126,
      "count": 3981,
      "max": [
        0.9998922348022461,
        1.0,
        0.9999233484268188
      ],
      "min": [
        -0.9994044899940491,
        -0.9999396800994873,
        -0.9999999403953552
      ],
      "type": "VEC3"
    },
    {
      "bufferView": 0,
      "byteOffset": 290976,
      "componentType": 5125,
      "count": 16506,
      "type": "SCALAR"
    }
  ],
  "asset": {
    "extras": {
      "author": "Not Cockatiel Slayer 稲妻の柱 (https://sketchfab.com/Not-Cockatiel-Slayer)",
      "license": "CC-BY-4.0 (http://creativecommons.org/licenses/by/4.0/)",
      "source": "https://sketchfab.com/3d-models/hollow-knight-4f13f00f30724505b9e49973168ea128",
      "title": "Hollow Knight"
    },
    "generator": "Sketchfab-12.15.0",
    "version": "2.0"
  },
  "bufferViews": [
    {
      "buffer": 0,
      "byteLength": 357000,
      "name": "floatBufferViews",
      "target": 34963
    },
    {
      "buffer": 0,
      "byteLength": 455952,
      "byteOffset": 357000,
      "byteStride": 12,
      "name": "floatBufferViews",
      "target": 34962
    }
  ],
  "buffers": [
    {
      "byteLength": 812952,
      "uri": "scene.bin"
    }
  ],
  "extensionsUsed": [
    "KHR_materials_unlit"
  ],
  "materials": [
    {
      "doubleSided": true,
      "extensions": {
        "KHR_materials_unlit": {}
      },
      "name": "color_1458557",
      "pbrMetallicRoughness": {
        "baseColorFactor": [
          0.0367201225711446,
          0.07080082611978883,
          0.11106511231140416,
          1.0
        ],
        "metallicFactor": 0.0
      }
    },
    {
      "doubleSided": true,
      "extensions": {
        "KHR_materials_unlit": {}
      },
      "name": "color_16448250",
      "pbrMetallicRoughness": {
        "baseColorFactor": [
          0.980392,
          0.980392,
          0.980392,
          1.0
        ],
        "metallicFactor": 0.0
      }
    },
    {
      "doubleSided": true,
      "extensions": {
        "KHR_materials_unlit": {}
      },
      "name": "color_2829873",
      "pbrMetallicRoughness": {
        "baseColorFactor": [
          0.0,
          0.0,
          0.0,
          1.0
        ],
        "metallicFactor": 0.0
      }
    }
  ],
  "meshes": [
    {
      "name": "Object_0",
      "primitives": [
        {
          "attributes": {
            "NORMAL": 1,
            "POSITION": 0
          },
          "indices": 2,
          "material": 0,
          "mode": 4
        }
      ]
    },
    {
      "name": "Object_1",
      "primitives": [
        {
          "attributes": {
            "NORMAL": 4,
            "POSITION": 3
          },
          "indices": 5,
          "material": 1,
          "mode": 4
        }
      ]
    },
    {
      "name": "Object_2",
      "primitives": [
        {
          "attributes": {
            "NORMAL": 7,
            "POSITION": 6
          },
          "indices": 8,
          "material": 2,
          "mode": 4
        }
      ]
    }
  ],
  "nodes": [
    {
      "children": [
        1
      ],
      "matrix": [
        1.0,
        0.0,
        0.0,
        0.0,
        0.0,
        -1.0,
        0.0,
        0.0,
        0.0,
        0.0,
        -1.0,
        0.0,
        0.0,
        -137.04954528808597,
        133.94441223144528,
        1.0
      ],
      "name": "Sketchfab_model"
    },
    {
      "children": [
        2,
        3,
        4
      ],
      "name": "tinker.obj.cleaner.materialmerger.gles"
    },
    {
      "mesh": 0,
      "name": "Object_2"
    },
    {
      "mesh": 1,
      "name": "Object_3"
    },
    {
      "mesh": 2,
      "name": "Object_4"
    }
  ],
  "scene": 0,
  "scenes": [
    {
      "name": "Sketchfab_Scene",
      "nodes": [
        0
      ]
    }
  ]
}
